<svg id="Capa_1" data-name="Capa 1" xmlns="http://www.w3.org/2000/svg" viewBox="0 0 383 380"><defs><style>.cls-1{fill:#7f3e90;opacity:0.3;}.cls-2{fill:#4e2460;}</style></defs><ellipse class="cls-1" cx="191.5" cy="190" rx="191.5" ry="190"/><path class="cls-2" d="M183,494c3.6,4.2,3.8,2.6,3.8,4.5s1.5,5.4,4.4,7.5,9.8,4.7,16.6,4.7c4.8,0,8.8-1.2,11.9-3.7s5.3-6.3,6.6-11.5,2-19.6,2-43.3V330.6c0-11.7-.7-18.9-2-21.8s-3.8-5.5-7.5-7.7-8.8-3.2-15.2-3.2H194v-6.2H315v6.2h-7.4c-6.7,0-12.1,1.1-16.1,3.5s-5,4.2-6.7,8-1.9,9.8-1.9,21.2V442c0,21.8-2.1,37.6-6.5,47.5s-12.1,18.2-23.2,24.8-24.6,10-40.2,10q-28.6,0-46.4-15.1" transform="translate(-97 -215)"/><path class="cls-2" d="M394.4,286.5l1.8,75.8h-6.9q-4.8-28.5-23.9-45.9C352.7,304.8,339,299,324.2,299c-11.4,0-20.4,3.1-27.1,9.2s-9.9,13.1-9.9,21a25.4,25.4,0,0,0,3.5,13.5c3.2,5.2,8.4,10.4,15.6,15.5,5.2,3.7,17.4,10.3,36.4,19.7,26.6,13.1,44.6,25.4,53.8,37a62.9,62.9,0,0,1,13.8,40q0,28.5-22.2,49t-56.5,20.6a89,89,0,0,1-20.3-2.2,163.1,163.1,0,0,1-24-8.2C282,511.8,267.5,503,264,503s-.8-6.2-4-4-5-1.6-7,3l-5,6,2.8-69.6H257q7.3,36.3,28.4,55.3c14,12.7,29.2,19,45.4,19,12.5,0,22.5-3.4,29.9-10.2s11.2-14.8,11.2-23.8a30.6,30.6,0,0,0-4.3-15.6,52.1,52.1,0,0,0-13-14.4c-5.8-4.5-16.1-10.4-30.9-17.6-20.7-10.2-35.5-18.9-44.6-26.1a80.6,80.6,0,0,1-20.9-23.9,60.5,60.5,0,0,1-7.3-29.2c0-18.1,6.7-33.6,20-46.3s30.1-19.1,50.3-19.1a89.8,89.8,0,0,1,21.5,2.6,119.2,119.2,0,0,1,19.2,7.5c7.5,3.6,12.8,5.5,15.8,5.5a8.9,8.9,0,0,0,6.9-2.7c1.7-1.8,3.3-6.1,4.7-12.9Z" transform="translate(-97 -215)"/></svg>